<svg xmlns="http://www.w3.org/2000/svg" width="193.017" height="115.141" viewBox="0 0 193.017 115.141"><g transform="translate(-135 -239.04)"><g transform="translate(135 239.04)"><path d="M205.775,474.639q0,6.109-5.564,10.34a20.54,20.54,0,0,1-6.343,3.056,27.383,27.383,0,0,1-7.834,1.1,29.033,29.033,0,0,1-12.338-2.271,16.979,16.979,0,0,1-6.931-5.327,10.052,10.052,0,0,1-2.118-5.561,9.542,9.542,0,0,1,1.725-5.445,5.986,5.986,0,0,1,5.327-2.547,5.9,5.9,0,0,1,3.836,1.411,3.983,3.983,0,0,1,1.726,3.054,3.8,3.8,0,0,0-2.585,1.8,6.3,6.3,0,0,0-.94,3.447,10.19,10.19,0,0,0,2.624,6.816q2.623,3.056,8.889,3.055,5.954,0,9.519-3.094a10.4,10.4,0,0,0,3.565-8.265,7.8,7.8,0,0,0-2-5.17,21.284,21.284,0,0,0-6.305-4.622q-3.134-1.724-7.991-3.838-10.1-4.387-14.257-9.871a12.344,12.344,0,0,1-2.5-7.834q0-5.248,5.091-9.166a21.693,21.693,0,0,1,12.845-3.759,26.2,26.2,0,0,1,11.085,2.036,15.236,15.236,0,0,1,6.266,4.817,9.167,9.167,0,0,1,1.919,5.053,8.444,8.444,0,0,1-1.606,4.9,5.478,5.478,0,0,1-4.817,2.312,5.336,5.336,0,0,1-3.485-1.254,3.556,3.556,0,0,1-1.528-2.742,3.443,3.443,0,0,0,2.271-2,7.7,7.7,0,0,0,.864-3.564,7.578,7.578,0,0,0-4.073-6.66,14.033,14.033,0,0,0-14.3,1.411,8.891,8.891,0,0,0-3.174,7.05,7.808,7.808,0,0,0,2,5.17,21.267,21.267,0,0,0,6.3,4.622,76.332,76.332,0,0,0,8.071,3.837q10.1,4.466,14.177,9.87A12.3,12.3,0,0,1,205.775,474.639Z" transform="translate(-164.648 -431.946)" fill="#1e3064"/><path d="M266.063,494.356v.706H246.949v-.706l1.959-.469a4.541,4.541,0,0,0,2.311-1.449,3.8,3.8,0,0,0,.9-2.546V469.6q0-4.7-1.8-7.051a5.8,5.8,0,0,0-4.857-2.349,8.4,8.4,0,0,0-4.075,1.173,11.328,11.328,0,0,0-3.525,3.017,6.008,6.008,0,0,0-1.409,3.643v21.855a3.8,3.8,0,0,0,.9,2.546,4.547,4.547,0,0,0,2.313,1.449l1.956.469v.706H222.51v-.706l2.35-.469a3.99,3.99,0,0,0,2.39-1.449,4.11,4.11,0,0,0,.9-2.624V464.276a4.117,4.117,0,0,0-.9-2.624,4.013,4.013,0,0,0-2.39-1.448l-2.35-.472v-.7h13.943v3.681a12.293,12.293,0,0,1,4.583-3.524,13.665,13.665,0,0,1,5.835-1.332,14.518,14.518,0,0,1,9.714,3.25,10.605,10.605,0,0,1,3.839,8.5v20.211a4.1,4.1,0,0,0,.9,2.624,3.982,3.982,0,0,0,2.39,1.449Z" transform="translate(-180.521 -439.053)" fill="#1e3064"/><path d="M321.776,494.356v.706H307.83V491.38a14.083,14.083,0,0,1-5.4,3.918,11.619,11.619,0,0,1-5.011.938q-6.582,0-10.3-2.584a8.288,8.288,0,0,1-3.72-7.208,7.447,7.447,0,0,1,1.566-4.425,14.432,14.432,0,0,1,4.546-3.877,26.209,26.209,0,0,1,8.068-2.86,51.782,51.782,0,0,1,10.26-.979v-4.7q0-5.247-1.369-7.52t-5.287-2.271a7.208,7.208,0,0,0-4.5,1.292,4.493,4.493,0,0,0-1.686,3.8,4.228,4.228,0,0,0,.861,2.466,3.688,3.688,0,0,0,2.273,1.529,3.553,3.553,0,0,1-1.528,2.741,5.351,5.351,0,0,1-3.485,1.253,5.843,5.843,0,0,1-4.857-1.96,6.943,6.943,0,0,1-1.566-4.463,6.026,6.026,0,0,1,2.114-4.544,14.2,14.2,0,0,1,5.484-3.016,22.889,22.889,0,0,1,6.894-1.057q6.89,0,10.928,3.211a10.369,10.369,0,0,1,4.033,8.539v20.211a4.1,4.1,0,0,0,.9,2.624,3.974,3.974,0,0,0,2.39,1.449ZM307.83,476.731q-6.736,0-10.26,2.624t-3.527,7.718a7.148,7.148,0,0,0,1.645,4.816,5.079,5.079,0,0,0,4,1.92,5.9,5.9,0,0,0,3.094-.823,15.721,15.721,0,0,0,2.938-2.39,9.238,9.238,0,0,0,2.114-3.211Z" transform="translate(-197.223 -439.053)" fill="#1e3064"/><path d="M376.409,477.045q0,8.7-5.4,14.1a17.211,17.211,0,0,1-5.638,3.759,17.425,17.425,0,0,1-6.737,1.332,16.9,16.9,0,0,1-5.445-.861,10.227,10.227,0,0,1-4.035-2.35v15.589a4.1,4.1,0,0,0,.9,2.623,3.99,3.99,0,0,0,2.39,1.449l2.348.47v.706H335.206v-.706l2.35-.47a4,4,0,0,0,2.391-1.449,4.118,4.118,0,0,0,.9-2.623V464.276a4.123,4.123,0,0,0-.9-2.624,4.01,4.01,0,0,0-2.391-1.448l-2.35-.472v-.7h13.943v3.681a13.758,13.758,0,0,1,10.418-4.856,15.509,15.509,0,0,1,6.266,1.332,16.467,16.467,0,0,1,5.327,3.681A20.549,20.549,0,0,1,376.409,477.045Zm-12.886,11.437a26.178,26.178,0,0,0,2.233-11.437,27.708,27.708,0,0,0-2.113-11.28q-2.117-4.778-6.112-4.779a7.3,7.3,0,0,0-4.777,1.919,12.735,12.735,0,0,0-3.448,4.5v21.385a8.887,8.887,0,0,0,3.29,3.173,8.3,8.3,0,0,0,4.073,1.136Q361.291,493.1,363.523,488.482Z" transform="translate(-211.437 -439.053)" fill="#1e3064"/><g transform="translate(41.989 60.307)"><path d="M238.019,550.3v14.255a3.955,3.955,0,0,0,.941,2.664,4.257,4.257,0,0,0,2.427,1.411l2.743.546v.706H222.51v-.706l2.741-.546a4.262,4.262,0,0,0,2.43-1.411,3.957,3.957,0,0,0,.939-2.664V520.379a3.958,3.958,0,0,0-.939-2.663,4.259,4.259,0,0,0-2.43-1.412l-2.741-.548v-.705h18.723a44.534,44.534,0,0,1,11.277,1.332,26.369,26.369,0,0,1,8.462,3.681q7.129,5.013,7.129,12.612t-7.129,12.611a26.31,26.31,0,0,1-8.462,3.682,44.521,44.521,0,0,1-11.277,1.332Zm0-1.567h3.214q8.223,0,12.3-3.994t4.073-12.064q0-8.067-4.073-12.063t-12.3-4h-3.214Z" transform="translate(-222.51 -515.051)" fill="#f08393"/><path d="M287.467,570.783a3.992,3.992,0,0,0,2.39-1.449,4.1,4.1,0,0,0,.9-2.624V541.173a4.105,4.105,0,0,0-.9-2.624,4.012,4.012,0,0,0-2.39-1.449l-2.35-.471v-.7H299.06V566.71a4.1,4.1,0,0,0,.9,2.624,3.978,3.978,0,0,0,2.389,1.449l2.351.469v.706H285.117v-.706Zm10.221-40.851a4.351,4.351,0,1,1,1.215-3.018A4.241,4.241,0,0,1,297.688,529.932Z" transform="translate(-239.685 -517.124)" fill="#f08393"/><path d="M355.874,575.843v.706H336.76v-.706l1.959-.469a4.556,4.556,0,0,0,2.311-1.449,3.8,3.8,0,0,0,.9-2.547V551.091q0-4.7-1.8-7.051a5.8,5.8,0,0,0-4.857-2.349,8.391,8.391,0,0,0-4.072,1.174,11.32,11.32,0,0,0-3.525,3.015,6,6,0,0,0-1.409,3.643v21.855a3.8,3.8,0,0,0,.9,2.547,4.546,4.546,0,0,0,2.311,1.449l1.959.469v.706H312.321v-.706l2.348-.469a3.984,3.984,0,0,0,2.39-1.449,4.1,4.1,0,0,0,.9-2.624V545.763a4.1,4.1,0,0,0-.9-2.624,4,4,0,0,0-2.39-1.449l-2.348-.472v-.7h13.943v3.68a12.288,12.288,0,0,1,4.581-3.524,13.665,13.665,0,0,1,5.837-1.333,14.52,14.52,0,0,1,9.714,3.251,10.608,10.608,0,0,1,3.837,8.5V571.3a4.1,4.1,0,0,0,.9,2.624,4,4,0,0,0,2.393,1.449Z" transform="translate(-247.148 -521.714)" fill="#f08393"/><path d="M414.523,569.179v.706H394.469v-.706a2.56,2.56,0,0,0,1.685-1.135,3.855,3.855,0,0,0,.587-2.154,7.007,7.007,0,0,0-1.488-4.152l-7.207-10.183-2.193,1.8v11.358a3.8,3.8,0,0,0,.9,2.546,4.558,4.558,0,0,0,2.313,1.449l1.956.469v.706H371.909v-.706l2.35-.469a3.987,3.987,0,0,0,2.388-1.449,4.1,4.1,0,0,0,.9-2.624V520.3a4.109,4.109,0,0,0-.9-2.624,4,4,0,0,0-2.388-1.449l-2.35-.471v-.705h13.944v35.878l6.735-5.641a22.3,22.3,0,0,0,4.427-5.209,9.64,9.64,0,0,0,1.606-4.739,2.921,2.921,0,0,0-3.212-3.134,5.119,5.119,0,0,1,1.8-2.936,5.631,5.631,0,0,1,3.839-1.294,5.028,5.028,0,0,1,3.719,1.372,5.364,5.364,0,0,1,1.371,3.955q0,2.272-2.506,4.9a84.892,84.892,0,0,1-7.521,6.7q.235-.154-2.43,1.959l12.22,17a12.707,12.707,0,0,0,7.912,5.17Z" transform="translate(-263.495 -515.051)" fill="#f08393"/></g></g></g></svg>