<svg xmlns="http://www.w3.org/2000/svg" width="480" height="480" viewBox="0 0 480 480">
  <g id="placeholder-upload" transform="translate(-2353 -8066)">
    <rect id="field-input-text-box" width="480" height="480" transform="translate(2353 8066)" fill="#ddd"/>
    <g id="ic-camera" transform="translate(2851 8280)">
      <g id="Group_79" data-name="Group 79" transform="translate(-310 -16)">
        <path id="Path_199" data-name="Path 199" d="M52.5,41.5A15.75,15.75,0,1,0,68.25,57.25,15.751,15.751,0,0,0,52.5,41.5Zm42-15.75H81.9a4.676,4.676,0,0,1-4.146-2.988L74.5,12.987A4.679,4.679,0,0,0,70.35,10H34.65A4.676,4.676,0,0,0,30.5,12.988l-3.257,9.774A4.679,4.679,0,0,1,23.1,25.75H10.5A10.531,10.531,0,0,0,0,36.25V83.5A10.531,10.531,0,0,0,10.5,94h84A10.531,10.531,0,0,0,105,83.5V36.25A10.531,10.531,0,0,0,94.5,25.75ZM52.5,83.5A26.25,26.25,0,1,1,78.75,57.25,26.25,26.25,0,0,1,52.5,83.5ZM90.825,43.593A3.675,3.675,0,1,1,94.5,39.918,3.675,3.675,0,0,1,90.825,43.593Z" transform="translate(0 -10)" fill="rgba(255,255,255,0.5)"/>
      </g>
    </g>
  </g>
</svg>
