<svg xmlns="http://www.w3.org/2000/svg" width="17" height="16.999" viewBox="0 0 17 16.999"><path d="M109.466,198.027a.664.664,0,1,1-.664.664.664.664,0,0,1,.664-.664Zm2.324.664a.664.664,0,1,0,.664-.664.664.664,0,0,0-.664.664Zm-5.977,0a.664.664,0,1,0,.664-.664.664.664,0,0,0-.664.664Zm11.6,6.228a1.992,1.992,0,0,1-2.817,2.818l-3.645-3.637a.663.663,0,0,1-.166-.277l-.794-2.614a.664.664,0,0,1,.813-.833l2.68.742a.664.664,0,0,1,.292.17Zm-5.406-1.642,2.46,2.455.939-.939-2.445-2.441-1.348-.374Zm4.468,2.582-.128-.128-.939.939.128.127a.664.664,0,1,0,.94-.938Zm-6.608-.777c-.123.005-.247.008-.369.008a8.038,8.038,0,0,1-3.055-.591.665.665,0,0,0-.509,0l-3.024,1.276,1.019-2.413a.664.664,0,0,0-.116-.7,5.63,5.63,0,0,1-1.486-3.779c0-3.439,3.217-6.237,7.172-6.237s7.172,2.8,7.172,6.237a5.468,5.468,0,0,1-.6,2.433.664.664,0,1,0,1.191.589,6.783,6.783,0,0,0,.733-3.022c0-4.171-3.813-7.565-8.5-7.565s-8.5,3.394-8.5,7.565a6.885,6.885,0,0,0,1.548,4.337l-1.5,3.544a.664.664,0,0,0,.87.87l4.281-1.807a9.384,9.384,0,0,0,3.3.588c.142,0,.286,0,.428-.009a.664.664,0,0,0-.058-1.327Zm0,0" transform="translate(-101 -191.32)" fill="#1e3064"/></svg>