<svg xmlns="http://www.w3.org/2000/svg" width="17" height="17" viewBox="0 0 17 17"><path d="M22.93,8.482h-2.3V7.419a.531.531,0,1,0-1.063,0V8.482H16.377V7.419a.531.531,0,1,0-1.063,0V8.482H12.127V7.419a.531.531,0,1,0-1.062,0V8.482h-2.3A1.416,1.416,0,0,0,7.346,9.9V22.471a1.416,1.416,0,0,0,1.417,1.417H22.93a1.416,1.416,0,0,0,1.416-1.417V9.9A1.416,1.416,0,0,0,22.93,8.482Zm.354,13.989a.354.354,0,0,1-.354.354H8.763a.354.354,0,0,1-.354-.354V9.9a.354.354,0,0,1,.354-.354h2.3v1.063a.531.531,0,0,0,1.062,0V9.544h3.187v1.063a.531.531,0,0,0,1.063,0V9.544h3.188v1.063a.531.531,0,0,0,1.063,0V9.544h2.3a.354.354,0,0,1,.354.354Z" transform="translate(-7.346 -6.888)" fill="#1e3064"/><rect width="2.133" height="1.6" transform="translate(3.717 6.373)" fill="#1e3064"/><rect width="2.133" height="1.6" transform="translate(3.717 9.027)" fill="#1e3064"/><rect width="2.133" height="1.6" transform="translate(3.717 11.683)" fill="#1e3064"/><rect width="2.133" height="1.6" transform="translate(7.433 11.683)" fill="#1e3064"/><rect width="2.133" height="1.6" transform="translate(7.433 9.027)" fill="#1e3064"/><rect width="2.133" height="1.6" transform="translate(7.433 6.373)" fill="#1e3064"/><rect width="2.133" height="1.6" transform="translate(11.15 9.027)" fill="#1e3064"/><rect width="2.133" height="1.6" transform="translate(11.15 6.373)" fill="#1e3064"/></svg>