<svg xmlns="http://www.w3.org/2000/svg" width="29.709" height="25" viewBox="0 0 29.709 25"><path d="M233.448,470.549a5.4,5.4,0,0,1,2.512,4.012,4.356,4.356,0,1,0-2.512-4.012Zm-2.855,8.921a4.356,4.356,0,1,0-4.357-4.355,4.355,4.355,0,0,0,4.357,4.355Zm1.849.3h-3.7a5.587,5.587,0,0,0-5.579,5.58v4.522l.012.071.312.1a25.416,25.416,0,0,0,7.585,1.222,15.546,15.546,0,0,0,6.624-1.244l.29-.146h.031v-4.522a5.584,5.584,0,0,0-5.577-5.58Zm7.208-4.5h-3.667a5.37,5.37,0,0,1-1.658,3.74,6.626,6.626,0,0,1,4.736,6.343v1.392a15.021,15.021,0,0,0,5.847-1.227l.29-.149h.033v-4.522a5.585,5.585,0,0,0-5.58-5.577Zm-16.7-.3a4.333,4.333,0,0,0,2.317-.673,5.4,5.4,0,0,1,2.028-3.44c0-.081.012-.161.012-.244a4.357,4.357,0,1,0-4.357,4.357Zm3.914,4.037a5.377,5.377,0,0,1-1.657-3.72c-.136-.009-.272-.02-.409-.02h-3.7a5.583,5.583,0,0,0-5.579,5.577v4.522l.011.071.311.1a26.17,26.17,0,0,0,6.284,1.18v-1.365a6.627,6.627,0,0,1,4.736-6.343Zm0,0" transform="translate(-215.52 -466.259)" fill="#fff"/></svg>