<svg xmlns="http://www.w3.org/2000/svg" width="19.5" height="24" viewBox="0 0 19.5 24"><g transform="translate(-139 -555.059)"><path d="M158.061,572.62l-1.682-1.682a3,3,0,0,1-.879-2.121V563.54a6.962,6.962,0,0,0-5.268-6.808,1.45,1.45,0,0,0,.017-.174,1.5,1.5,0,1,0-2.983.171A6.747,6.747,0,0,0,142,563.309v5.508a3,3,0,0,1-.879,2.121l-1.682,1.682a1.5,1.5,0,0,0-.44,1.061h0a1.628,1.628,0,0,0,1.627,1.627h5.123v.75a3,3,0,1,0,6,0v-.75h5.123a1.627,1.627,0,0,0,1.627-1.627h0a1.5,1.5,0,0,0-.439-1.061Zm0,0" fill="#fff"/></g></svg>