<svg xmlns="http://www.w3.org/2000/svg" width="25" height="24.999" viewBox="0 0 25 24.999"><path d="M113.451,201.183a.977.977,0,1,1-.977.977.976.976,0,0,1,.977-.977Zm3.418.977a.977.977,0,1,0,.977-.977.977.977,0,0,0-.977.977Zm-8.789,0a.977.977,0,1,0,.977-.977.977.977,0,0,0-.977.977Zm17.061,9.158A2.93,2.93,0,0,1,121,215.462l-5.361-5.349a.975.975,0,0,1-.245-.408l-1.168-3.844a.977.977,0,0,1,1.2-1.225l3.942,1.092a.976.976,0,0,1,.429.25Zm-7.95-2.415,3.618,3.61,1.381-1.381-3.6-3.589-1.983-.549Zm6.57,3.8-.189-.188-1.381,1.381.188.187a.976.976,0,1,0,1.382-1.38Zm-9.718-1.143c-.18.008-.363.012-.543.012a11.82,11.82,0,0,1-4.493-.869.978.978,0,0,0-.749,0l-4.447,1.877,1.5-3.549a.976.976,0,0,0-.17-1.029,8.279,8.279,0,0,1-2.186-5.558c0-5.058,4.731-9.172,10.547-9.172s10.547,4.115,10.547,9.172a8.042,8.042,0,0,1-.875,3.579.977.977,0,1,0,1.751.865A9.975,9.975,0,0,0,126,202.445c0-6.134-5.608-11.125-12.5-11.125S101,196.311,101,202.445a10.124,10.124,0,0,0,2.277,6.379l-2.2,5.212a.977.977,0,0,0,1.28,1.279l6.3-2.657a13.8,13.8,0,0,0,4.848.864c.208,0,.42,0,.629-.014a.977.977,0,0,0-.086-1.951Zm0,0" transform="translate(-101 -191.32)" fill="#fff"/></svg>