<svg xmlns="http://www.w3.org/2000/svg" width="25.25" height="24" viewBox="0 0 25.25 24"><g transform="translate(0 -12.676)"><g transform="translate(0 12.675)"><g transform="translate(0 0)"><path d="M24.826,23.338,13.5,13.015a1.289,1.289,0,0,0-1.744,0L.424,23.338A1.295,1.295,0,0,0,1.3,25.59H3.106V35.933a.743.743,0,0,0,.743.743h6.21a.743.743,0,0,0,.743-.743v-6.28h3.65v6.28a.743.743,0,0,0,.743.743H21.4a.743.743,0,0,0,.743-.743V25.59h1.81a1.295,1.295,0,0,0,.872-2.252Z" transform="translate(0 -12.675)" fill="#fff"/></g></g><g transform="translate(16.498 14.241)"><g transform="translate(0 0)"><path d="M349.24,42.73h-5.267l6.052,5.5V43.514A.784.784,0,0,0,349.24,42.73Z" transform="translate(-343.973 -42.73)" fill="#fff"/></g></g></g></svg>