<svg xmlns="http://www.w3.org/2000/svg" width="41.676" height="25.656" viewBox="0 0 41.676 25.656"><g transform="translate(0 -334.797)"><path d="M2.672,360.453H31.466a2.675,2.675,0,0,0,2.672-2.672v-1.256l5.181-.619a2.672,2.672,0,0,0,2.337-2.97l-.49-4.1a.814.814,0,0,0-.891-.713,3,3,0,0,1-.711-5.96.814.814,0,0,0,.7-.9l-.49-4.1a2.673,2.673,0,0,0-2.97-2.337l-28.59,3.413a2.653,2.653,0,0,0-1.77.984H2.672A2.676,2.676,0,0,0,0,341.886v4.132a.814.814,0,0,0,.8.814,3,3,0,0,1,0,6,.814.814,0,0,0-.8.814v4.132A2.675,2.675,0,0,0,2.672,360.453ZM37,336.433a1.044,1.044,0,0,1,1.161.913l.4,3.377a4.631,4.631,0,0,0,1.078,9.029l.4,3.376a1.044,1.044,0,0,1-.913,1.161l-4.988.6v-1.237a.814.814,0,0,0-.8-.814,3,3,0,0,1,0-6,.814.814,0,0,0,.8-.814v-4.132a2.676,2.676,0,0,0-2.672-2.673H13.7ZM1.628,354.38a4.6,4.6,0,0,0,2.421-1.3,4.63,4.63,0,0,0,0-6.5,4.6,4.6,0,0,0-2.421-1.3v-3.4a1.046,1.046,0,0,1,1.044-1.045H24.791v9.912a.814.814,0,1,0,1.628,0v-9.912h5.047a1.046,1.046,0,0,1,1.044,1.045v3.4a4.631,4.631,0,0,0,0,9.093v3.4a1.046,1.046,0,0,1-1.044,1.045H26.419V357.3a.814.814,0,0,0-1.628,0v1.526H2.672a1.046,1.046,0,0,1-1.044-1.045Z" transform="translate(0 0)" fill="#fff"/><path d="M76.2,392.481a.811.811,0,0,0,.075.141.793.793,0,0,0,.1.124.773.773,0,0,0,.124.1.838.838,0,0,0,.14.075.8.8,0,0,0,.47.046.776.776,0,0,0,.152-.046.891.891,0,0,0,.141-.075.819.819,0,0,0,.124-.1.788.788,0,0,0,.1-.124.825.825,0,0,0,.121-.293.782.782,0,0,0,0-.317.8.8,0,0,0-.121-.293.768.768,0,0,0-.1-.124.809.809,0,0,0-.124-.1.781.781,0,0,0-.141-.075.8.8,0,0,0-.152-.047.827.827,0,0,0-.318,0,.81.81,0,0,0-.152.047.739.739,0,0,0-.14.075.764.764,0,0,0-.124.1.773.773,0,0,0-.1.124.8.8,0,0,0-.121.293.814.814,0,0,0,0,.317A.816.816,0,0,0,76.2,392.481Z" transform="translate(-51.351 -38.144)" fill="#fff"/><path d="M24.453,369.273l.434.423-.246,1.435-.365,2.126a.814.814,0,0,0,1.181.858l3.2-1.681,3.2,1.681a.814.814,0,0,0,1.181-.858l-.611-3.561,2.587-2.522a.814.814,0,0,0-.451-1.389l-3.576-.519-1.6-3.24a.814.814,0,0,0-1.46,0l-1.407,2.851-.192.389-1.353.2-2.222.323a.814.814,0,0,0-.451,1.389Zm.982-2.232,1.549-.225c.024,0,.048-.009.072-.015a.813.813,0,0,0,.541-.43l1.058-2.145,1.059,2.145a.814.814,0,0,0,.613.445l2.367.344-1.713,1.669a.815.815,0,0,0-.234.721l.4,2.357-2.117-1.113a.814.814,0,0,0-.758,0l-2.117,1.113.4-2.357a.824.824,0,0,0-.234-.72l-1-.978-.71-.692Z" transform="translate(-14.874 -18.058)" fill="#fff"/></g></svg>