<svg xmlns="http://www.w3.org/2000/svg" width="29.043" height="25.358" viewBox="0 0 29.043 25.358"><g transform="translate(-110 -496)"><path d="M157.053,534.578h-3.946a1.96,1.96,0,0,0-1.958,1.958v3.027a1.96,1.96,0,0,0,1.958,1.958h3.946a1.96,1.96,0,0,0,1.958-1.958v-3.027a1.96,1.96,0,0,0-1.958-1.958Zm.534,4.985a.536.536,0,0,1-.534.534h-3.946a.535.535,0,0,1-.534-.534v-3.027a.535.535,0,0,1,.534-.534h3.946a.536.536,0,0,1,.534.534Zm0,0" transform="translate(-26.419 -24.768)" fill="#fff"/><path d="M139.043,504.308a.659.659,0,0,0-.095-.35l-4.32-7.6a.716.716,0,0,0-.617-.362H115.027a.7.7,0,0,0-.617.362l-4.315,7.6a.719.719,0,0,0-.095.35,4.166,4.166,0,0,0,2.493,3.81v12.528a.714.714,0,0,0,.712.712h22.628a.714.714,0,0,0,.712-.712V508.207a.326.326,0,0,0-.006-.077,4.177,4.177,0,0,0,2.5-3.822Zm-23.6-6.878H133.6l3.377,5.94h-24.9Zm15.228,7.359a2.737,2.737,0,0,1-5.388,0Zm-6.9,0a2.741,2.741,0,0,1-5.395,0Zm-12.3,0h5.395a2.741,2.741,0,0,1-5.395,0Zm10.492,15.145h-4.095v-7.685a1.014,1.014,0,0,1,1.015-1.015h2.071a1.014,1.014,0,0,1,1.015,1.015v7.685Zm13.157,0H123.388v-7.685a2.443,2.443,0,0,0-2.439-2.439h-2.072a2.443,2.443,0,0,0-2.439,2.439v7.691h-2.522V508.468c.083.006.166.006.249.006a4.161,4.161,0,0,0,3.454-1.84,4.162,4.162,0,0,0,6.908,0,4.151,4.151,0,0,0,6.9,0,4.159,4.159,0,0,0,3.454,1.84c.083,0,.16-.006.243-.006Zm-.243-12.884a2.736,2.736,0,0,1-2.694-2.255h5.395a2.753,2.753,0,0,1-2.7,2.255Zm0,0" transform="translate(0)" fill="#fff"/></g></svg>