<svg xmlns="http://www.w3.org/2000/svg" width="25.544" height="25.305" viewBox="0 0 25.544 25.305"><g transform="translate(0.001 -1.916)"><g transform="translate(-0.001 1.916)"><path d="M118.647,15.5c3.206,0,5.8-3.042,5.8-6.794,0-5.2-2.6-6.794-5.8-6.794s-5.8,1.591-5.8,6.794C112.843,12.462,115.442,15.5,118.647,15.5Z" transform="translate(-105.875 -1.916)" fill="#fff"/><path d="M25.418,231.1l-2.889-6.6a1.462,1.462,0,0,0-.653-.7l-4.484-2.366a.286.286,0,0,0-.308.026,7,7,0,0,1-8.625,0,.286.286,0,0,0-.308-.026L3.667,223.8a1.461,1.461,0,0,0-.653.7L.124,231.1a1.476,1.476,0,0,0,.109,1.392,1.435,1.435,0,0,0,1.211.666H24.1a1.435,1.435,0,0,0,1.211-.666A1.476,1.476,0,0,0,25.418,231.1Z" transform="translate(0.001 -207.856)" fill="#fff"/></g></g></svg>