<svg xmlns="http://www.w3.org/2000/svg" width="25.509" height="25.509" viewBox="0 0 25.509 25.509"><g transform="translate(-174 -485)"><path d="M186.754,485a12.754,12.754,0,1,0,12.754,12.754A12.769,12.769,0,0,0,186.754,485Zm0,23.19a10.435,10.435,0,1,1,10.435-10.435,10.447,10.447,0,0,1-10.435,10.435Zm0,0" transform="translate(0 0)" fill="#fff"/><path d="M194.44,494.121a1.546,1.546,0,1,0,1.545,1.547,1.548,1.548,0,0,0-1.545-1.547Zm0,0" transform="translate(-7.686 -3.71)" fill="#fff"/><path d="M194.7,503.242a1.16,1.16,0,0,0-1.16,1.16v6.957a1.16,1.16,0,0,0,2.319,0V504.4a1.16,1.16,0,0,0-1.16-1.16Zm0,0" transform="translate(-7.95 -7.42)" fill="#fff"/></g></svg>