<svg xmlns="http://www.w3.org/2000/svg" width="25" height="25" viewBox="0 0 25 25"><path d="M30.263,9.232H26.877V7.67a.781.781,0,1,0-1.563,0V9.232H20.627V7.67a.781.781,0,1,0-1.563,0V9.232H14.377V7.67a.781.781,0,1,0-1.562,0V9.232H9.43a2.083,2.083,0,0,0-2.084,2.083V29.8A2.083,2.083,0,0,0,9.43,31.888H30.263A2.083,2.083,0,0,0,32.346,29.8V11.315A2.083,2.083,0,0,0,30.263,9.232Zm.52,20.572a.521.521,0,0,1-.52.521H9.43a.521.521,0,0,1-.521-.521V11.315a.521.521,0,0,1,.521-.521h3.385v1.563a.781.781,0,0,0,1.562,0V10.795h4.687v1.563a.781.781,0,0,0,1.563,0V10.795h4.688v1.563a.781.781,0,0,0,1.563,0V10.795h3.386a.521.521,0,0,1,.52.521Z" transform="translate(-7.346 -6.888)" fill="#fff"/><rect width="3.137" height="2.353" transform="translate(5.466 9.371)" fill="#fff"/><rect width="3.137" height="2.353" transform="translate(5.466 13.276)" fill="#fff"/><rect width="3.137" height="2.353" transform="translate(5.466 17.181)" fill="#fff"/><rect width="3.137" height="2.353" transform="translate(10.931 17.181)" fill="#fff"/><rect width="3.137" height="2.353" transform="translate(10.931 13.276)" fill="#fff"/><rect width="3.137" height="2.353" transform="translate(10.931 9.371)" fill="#fff"/><rect width="3.137" height="2.353" transform="translate(16.397 13.276)" fill="#fff"/><rect width="3.137" height="2.353" transform="translate(16.397 9.371)" fill="#fff"/></svg>