<svg xmlns="http://www.w3.org/2000/svg" width="15" height="15" viewBox="0 0 15 15"><path d="M34.79,29.95a4.86,4.86,0,0,0-2.668-4.33,6.614,6.614,0,0,1-6.511,6.511,4.852,4.852,0,0,0,6.8,1.991l2.361.652-.652-2.361a4.838,4.838,0,0,0,.67-2.464Zm0,0" transform="translate(-19.79 -19.797)" fill="#223771"/><path d="M11.455,5.727A5.727,5.727,0,1,0,.793,8.639l-.773,2.8,2.8-.773a5.73,5.73,0,0,0,8.639-4.934Z" fill="#223771"/><path d="M23.27,34.93" transform="translate(-17.981 -26.991)" fill="#223771"/></svg>