<svg xmlns="http://www.w3.org/2000/svg" width="16.017" height="16.017" viewBox="0 0 16.017 16.017"><g transform="translate(-174 -485)"><path d="M182.008,485a8.008,8.008,0,1,0,8.008,8.008A8.017,8.017,0,0,0,182.008,485Zm0,14.561a6.552,6.552,0,1,1,6.552-6.552,6.56,6.56,0,0,1-6.552,6.552Zm0,0" transform="translate(0)" fill="#1e3064"/><path d="M193.865,494.121a.971.971,0,1,0,.97.971.972.972,0,0,0-.97-.971Zm0,0" transform="translate(-11.856 -5.724)" fill="#1e3064"/><path d="M194.273,503.242a.728.728,0,0,0-.728.728v4.368a.728.728,0,1,0,1.456,0V503.97a.728.728,0,0,0-.728-.728Zm0,0" transform="translate(-12.265 -11.447)" fill="#1e3064"/></g></svg>