<svg xmlns="http://www.w3.org/2000/svg" width="20" height="12.312" viewBox="0 0 20 12.312"><g transform="translate(0 -334.797)"><path d="M1.282,347.109H15.1a1.284,1.284,0,0,0,1.282-1.282v-.6l2.487-.3a1.282,1.282,0,0,0,1.121-1.425l-.235-1.969a.391.391,0,0,0-.428-.342,1.441,1.441,0,0,1-.341-2.86.391.391,0,0,0,.335-.433l-.235-1.969a1.283,1.283,0,0,0-1.425-1.121l-13.72,1.638a1.273,1.273,0,0,0-.849.472H1.282A1.284,1.284,0,0,0,0,338.2v1.983a.391.391,0,0,0,.384.391,1.441,1.441,0,0,1,0,2.881.39.39,0,0,0-.384.39v1.983A1.284,1.284,0,0,0,1.282,347.109Zm16.471-11.527a.5.5,0,0,1,.557.438l.193,1.62a2.223,2.223,0,0,0,.517,4.333l.193,1.62a.5.5,0,0,1-.438.557l-2.394.286v-.593a.391.391,0,0,0-.384-.391,1.441,1.441,0,0,1,0-2.881.39.39,0,0,0,.384-.39V338.2a1.284,1.284,0,0,0-1.282-1.283H6.574ZM.781,344.195a2.208,2.208,0,0,0,1.162-.623,2.222,2.222,0,0,0,0-3.117,2.209,2.209,0,0,0-1.162-.623V338.2a.5.5,0,0,1,.5-.5H11.9v4.757a.391.391,0,1,0,.781,0V337.7H15.1a.5.5,0,0,1,.5.5v1.632a2.222,2.222,0,0,0,0,4.364v1.632a.5.5,0,0,1-.5.5H12.678V345.6a.391.391,0,0,0-.781,0v.732H1.282a.5.5,0,0,1-.5-.5Z" transform="translate(0 0)" fill="#1e3064"/><path d="M76.172,391.9a.389.389,0,0,0,.036.068.381.381,0,0,0,.049.059.371.371,0,0,0,.059.048.4.4,0,0,0,.067.036.383.383,0,0,0,.226.022.373.373,0,0,0,.073-.022.428.428,0,0,0,.068-.036.393.393,0,0,0,.059-.048.379.379,0,0,0,.048-.059.4.4,0,0,0,.058-.141.375.375,0,0,0,0-.152.386.386,0,0,0-.058-.141.369.369,0,0,0-.048-.059.389.389,0,0,0-.059-.048.375.375,0,0,0-.068-.036.383.383,0,0,0-.073-.023.4.4,0,0,0-.153,0,.389.389,0,0,0-.073.023.356.356,0,0,0-.067.036.368.368,0,0,0-.059.048.371.371,0,0,0-.049.059.386.386,0,0,0-.058.141.39.39,0,0,0,0,.152A.392.392,0,0,0,76.172,391.9Z" transform="translate(-64.245 -47.722)" fill="#1e3064"/><path d="M23.206,365.268l.208.2-.118.689-.175,1.02a.391.391,0,0,0,.567.412l1.535-.807,1.535.807a.391.391,0,0,0,.567-.412l-.293-1.709,1.242-1.21a.391.391,0,0,0-.217-.666l-1.716-.249-.767-1.555a.391.391,0,0,0-.7,0l-.675,1.368-.092.187-.65.094-1.066.155a.391.391,0,0,0-.217.666Zm.471-1.071.743-.108.035-.007a.39.39,0,0,0,.26-.207l.508-1.029.508,1.029a.391.391,0,0,0,.294.214l1.136.165-.822.8a.391.391,0,0,0-.112.346l.194,1.131L25.4,366a.391.391,0,0,0-.364,0l-1.016.534.194-1.131a.4.4,0,0,0-.112-.346l-.481-.469-.341-.332Z" transform="translate(-18.608 -22.592)" fill="#1e3064"/></g></svg>