<svg xmlns="http://www.w3.org/2000/svg" width="16.151" height="16" viewBox="0 0 16.151 16"><g transform="translate(0 -1.916)"><g transform="translate(-0.001 1.916)"><path d="M116.513,10.507c2.027,0,3.67-1.923,3.67-4.3,0-3.29-1.643-4.3-3.67-4.3s-3.67,1.006-3.67,4.3C112.843,8.584,114.486,10.507,116.513,10.507Z" transform="translate(-108.437 -1.916)" fill="#1e3064"/><path d="M16.072,227.536l-1.827-4.171a.924.924,0,0,0-.413-.446L11,221.423a.181.181,0,0,0-.194.017,4.426,4.426,0,0,1-5.453,0,.181.181,0,0,0-.195-.017l-2.835,1.5a.924.924,0,0,0-.413.446L.078,227.536a.933.933,0,0,0,.069.88.907.907,0,0,0,.766.421H15.237a.907.907,0,0,0,.766-.421A.933.933,0,0,0,16.072,227.536Z" transform="translate(0.001 -212.837)" fill="#1e3064"/></g></g></svg>