<svg xmlns="http://www.w3.org/2000/svg" width="11.717" height="14" viewBox="0 0 11.717 14"><g transform="translate(0)"><path d="M259.875,4.305l-2.856-2.856a2.225,2.225,0,0,0-1.208-.6V5.513h4.659A2.224,2.224,0,0,0,259.875,4.305Z" transform="translate(-248.78 -0.827)" fill="#1e3064"/><path d="M43.283,5.833a.873.873,0,0,1-.879-.875V0h-4.98A.849.849,0,0,0,36.8.255a.842.842,0,0,0-.256.62v12.25a.873.873,0,0,0,.879.875h9.96a.873.873,0,0,0,.879-.875V5.833Z" transform="translate(-36.546)" fill="#1e3064"/></g></svg>