<svg xmlns="http://www.w3.org/2000/svg" width="16.833" height="16" viewBox="0 0 16.833 16"><g transform="translate(0 -12.676)"><g transform="translate(0 12.675)"><g transform="translate(0 0)"><path d="M16.551,19.784,9,12.9a.859.859,0,0,0-1.163,0L.283,19.784a.863.863,0,0,0,.581,1.5H2.07v6.9a.5.5,0,0,0,.5.5h4.14a.5.5,0,0,0,.5-.5V23.994H9.633V28.18a.5.5,0,0,0,.5.5h4.14a.5.5,0,0,0,.5-.5v-6.9h1.207a.863.863,0,0,0,.581-1.5Z" transform="translate(0 -12.675)" fill="#1e3064"/></g></g><g transform="translate(11.118 13.698)"><g transform="translate(0 0)"><path d="M347.413,42.73h-3.44l3.952,3.593V43.242A.512.512,0,0,0,347.413,42.73Z" transform="translate(-343.973 -42.73)" fill="#1e3064"/></g></g></g></svg>