<svg xmlns="http://www.w3.org/2000/svg" width="20.746" height="25.534" viewBox="0 0 20.746 25.534"><g transform="translate(-139 -555.059)"><path d="M159.279,573.742l-1.79-1.789a3.194,3.194,0,0,1-.935-2.257v-5.613a7.407,7.407,0,0,0-5.6-7.243,1.546,1.546,0,0,0,.019-.185,1.6,1.6,0,1,0-3.174.182,7.178,7.178,0,0,0-5.6,7v5.86a3.194,3.194,0,0,1-.935,2.257l-1.789,1.789a1.6,1.6,0,0,0-.468,1.129h0a1.732,1.732,0,0,0,1.731,1.731h5.45v.8a3.192,3.192,0,1,0,6.383,0v-.8h5.45a1.731,1.731,0,0,0,1.731-1.731h0a1.6,1.6,0,0,0-.467-1.129Zm0,0" fill="#1e3064"/></g></svg>