<svg xmlns="http://www.w3.org/2000/svg" width="18" height="15.716" viewBox="0 0 18 15.716"><g transform="translate(-110 -496)"><path d="M154.807,534.578h-2.446a1.215,1.215,0,0,0-1.214,1.214v1.876a1.215,1.215,0,0,0,1.214,1.214h2.446a1.215,1.215,0,0,0,1.214-1.214v-1.876a1.215,1.215,0,0,0-1.214-1.214Zm.331,3.09a.332.332,0,0,1-.331.331h-2.446a.332.332,0,0,1-.331-.331v-1.876a.332.332,0,0,1,.331-.331h2.446a.332.332,0,0,1,.331.331Zm0,0" transform="translate(-32.019 -30.019)" fill="#1e3064"/><path d="M128,501.149a.408.408,0,0,0-.059-.217l-2.678-4.708a.444.444,0,0,0-.382-.224H113.115a.436.436,0,0,0-.382.224l-2.674,4.708a.445.445,0,0,0-.059.217,2.582,2.582,0,0,0,1.545,2.361v7.764a.443.443,0,0,0,.441.441H126.01a.443.443,0,0,0,.441-.441v-7.709a.2.2,0,0,0,0-.048A2.589,2.589,0,0,0,128,501.149Zm-14.627-4.263h11.251l2.093,3.681H111.284Zm9.438,4.561a1.7,1.7,0,0,1-3.34,0Zm-4.277,0a1.7,1.7,0,0,1-3.344,0Zm-7.621,0h3.343a1.7,1.7,0,0,1-3.343,0Zm6.5,9.386h-2.538V506.07a.629.629,0,0,1,.629-.629h1.284a.629.629,0,0,1,.629.629v4.763Zm8.154,0H118.3V506.07a1.514,1.514,0,0,0-1.511-1.512H115.5a1.514,1.514,0,0,0-1.511,1.512v4.767h-1.563v-7.11c.051,0,.1,0,.154,0a2.579,2.579,0,0,0,2.141-1.14,2.579,2.579,0,0,0,4.281,0,2.573,2.573,0,0,0,4.274,0,2.578,2.578,0,0,0,2.14,1.14c.051,0,.1,0,.151,0Zm-.151-7.985a1.7,1.7,0,0,1-1.67-1.4h3.344a1.706,1.706,0,0,1-1.674,1.4Zm0,0" fill="#1e3064"/></g></svg>