<svg xmlns="http://www.w3.org/2000/svg" width="72" height="72" viewBox="0 0 72 72"><g transform="translate(-1076 -433)" opacity="0.847"><g transform="translate(1076 433)" fill="#fff" stroke="#7185a5" stroke-width="1"><circle cx="36" cy="36" r="36" stroke="none"/><circle cx="36" cy="36" r="35.5" fill="none"/></g><g transform="translate(980 -46)"><path d="M160,534.578h-5.913a2.937,2.937,0,0,0-2.935,2.935v4.536a2.937,2.937,0,0,0,2.935,2.935H160a2.937,2.937,0,0,0,2.935-2.935v-4.536A2.938,2.938,0,0,0,160,534.578Zm.8,7.47a.8.8,0,0,1-.8.8h-5.913a.8.8,0,0,1-.8-.8v-4.536a.8.8,0,0,1,.8-.8H160a.8.8,0,0,1,.8.8Zm0,0" transform="translate(-19.075 -17.884)" fill="#7185a5"/><path d="M153.522,508.45a.987.987,0,0,0-.142-.525l-6.474-11.383a1.073,1.073,0,0,0-.925-.542H117.532a1.054,1.054,0,0,0-.925.542l-6.466,11.383a1.077,1.077,0,0,0-.142.525,6.243,6.243,0,0,0,3.735,5.709v18.773A1.07,1.07,0,0,0,114.8,534h33.909a1.071,1.071,0,0,0,1.068-1.067v-18.64a.487.487,0,0,0-.009-.116,6.259,6.259,0,0,0,3.752-5.727Zm-35.368-10.307h27.2l5.061,8.9H113.1Zm22.82,11.027a4.1,4.1,0,0,1-8.075,0Zm-10.342,0a4.107,4.107,0,0,1-8.084,0Zm-18.427,0h8.084a4.107,4.107,0,0,1-8.084,0Zm15.723,22.695h-6.136V520.349a1.52,1.52,0,0,1,1.521-1.521h3.1a1.52,1.52,0,0,1,1.521,1.521v11.516Zm19.716,0H130.063V520.349a3.66,3.66,0,0,0-3.655-3.655h-3.1a3.66,3.66,0,0,0-3.655,3.655v11.526h-3.78V514.684c.124.009.249.009.373.009a6.235,6.235,0,0,0,5.176-2.757,6.236,6.236,0,0,0,10.351,0,6.22,6.22,0,0,0,10.334,0,6.233,6.233,0,0,0,5.175,2.757c.124,0,.24-.009.365-.009Zm-.365-19.307a4.1,4.1,0,0,1-4.038-3.38h8.084a4.125,4.125,0,0,1-4.047,3.38Zm0,0" transform="translate(0 0)" fill="#7185a5"/></g></g></svg>