<svg xmlns="http://www.w3.org/2000/svg" width="45.047" height="36.037" viewBox="0 0 45.047 36.037"><g transform="translate(0 0)"><path d="M22.523,23.514a6.757,6.757,0,1,0,6.757,6.757A6.757,6.757,0,0,0,22.523,23.514Zm18.019-6.757H35.137a2.006,2.006,0,0,1-1.779-1.282l-1.4-4.193A2.007,2.007,0,0,0,30.181,10H14.865a2.006,2.006,0,0,0-1.779,1.282l-1.4,4.193A2.007,2.007,0,0,1,9.91,16.757H4.5a4.518,4.518,0,0,0-4.5,4.5V41.533a4.518,4.518,0,0,0,4.5,4.5H40.542a4.518,4.518,0,0,0,4.5-4.5V21.262A4.518,4.518,0,0,0,40.542,16.757ZM22.523,41.533A11.262,11.262,0,1,1,33.785,30.271,11.262,11.262,0,0,1,22.523,41.533ZM38.966,24.412a1.577,1.577,0,1,1,1.577-1.577A1.577,1.577,0,0,1,38.966,24.412Z" transform="translate(0 -10)" fill="#fff"/></g></svg>