<svg xmlns="http://www.w3.org/2000/svg" width="15.286" height="14.11" viewBox="0 0 15.286 14.11"><path d="M17.692,29.2H4.758a.561.561,0,0,0-.413.175.568.568,0,0,0-.175.413v8.819a.6.6,0,0,0,.588.588H17.692a.6.6,0,0,0,.588-.588V29.788a.6.6,0,0,0-.588-.588Zm-4.878,2.765a.571.571,0,0,1-.413.175H10.05a.588.588,0,0,1,0-1.175H12.4a.584.584,0,0,1,.413,1Zm0,0" transform="translate(-3.582 -25.084)" fill="#223771"/><path d="M15.112.175A.565.565,0,0,0,14.7,0H.588A.561.561,0,0,0,.175.175.561.561,0,0,0,0,.588V2.939a.561.561,0,0,0,.175.413.568.568,0,0,0,.413.175H14.7a.6.6,0,0,0,.588-.588V.588a.559.559,0,0,0-.173-.413Zm0,0" transform="translate(0 0)" fill="#223771"/></svg>