<svg xmlns="http://www.w3.org/2000/svg" width="14.679" height="14" viewBox="0 0 14.679 14">
  <g id="ic-rating-star-full" transform="translate(0 -10.99)">
    <path id="Path_105" data-name="Path 105" d="M14.679,16.415q0-.326-.494-.406l-4.428-.644L7.772,11.352Q7.6,10.99,7.34,10.99t-.432.362L4.922,15.366l-4.429.644Q0,16.089,0,16.415a.672.672,0,0,0,.221.423l3.211,3.123-.759,4.411a1.433,1.433,0,0,0-.018.176.52.52,0,0,0,.093.313.32.32,0,0,0,.278.128.748.748,0,0,0,.353-.106L7.34,22.8,11.3,24.884a.714.714,0,0,0,.353.106.311.311,0,0,0,.269-.128.521.521,0,0,0,.092-.313,1.333,1.333,0,0,0-.009-.176l-.759-4.411,3.2-3.123A.637.637,0,0,0,14.679,16.415Z" transform="translate(0)" fill="#feba3b"/>
  </g>
</svg>
