<svg xmlns="http://www.w3.org/2000/svg" width="25" height="25" viewBox="0 0 25 25"><g transform="translate(-38.895 -948)"><path d="M63.9,960.5c0,1.047-1.711,1.856-1.969,2.822-.267,1,.8,2.554.3,3.429s-2.4.735-3.12,1.456-.568,2.606-1.456,3.12-2.43-.563-3.429-.3c-.966.258-1.775,1.969-2.822,1.969s-1.856-1.711-2.822-1.969c-1-.267-2.554.8-3.429.3s-.735-2.4-1.456-3.12-2.606-.568-3.12-1.455.563-2.43.3-3.429c-.258-.966-1.969-1.775-1.969-2.822s1.711-1.856,1.969-2.822c.267-1-.8-2.554-.3-3.429s2.4-.735,3.12-1.456.568-2.606,1.456-3.12,2.43.563,3.429.3c.966-.258,1.775-1.969,2.822-1.969s1.856,1.711,2.822,1.969c1,.267,2.554-.8,3.429-.3s.735,2.4,1.456,3.12,2.606.568,3.12,1.456-.564,2.429-.3,3.429c.258.966,1.969,1.775,1.969,2.822Z" fill="#ffbbdb"/><path d="M64.031,965.167a7.969,7.969,0,1,1-7.969-7.969,7.968,7.968,0,0,1,7.969,7.969Zm0,0" transform="translate(-4.667 -4.667)" fill="#f54c5a"/><path d="M65.595,968.312,59.207,974.7a.792.792,0,1,1-1.12-1.12l6.388-6.388a.792.792,0,1,1,1.12,1.12Zm0,0" transform="translate(-10.446 -10.446)" fill="#f3f3ff"/><path d="M60.067,967.973a1.2,1.2,0,1,1-1.2-1.2,1.2,1.2,0,0,1,1.2,1.2Zm0,0" transform="translate(-10.156 -10.156)" fill="#f3f3ff"/><path d="M71.754,979.66a1.2,1.2,0,1,1-1.2-1.2,1.2,1.2,0,0,1,1.2,1.2Zm0,0" transform="translate(-16.478 -16.478)" fill="#f3f3ff"/></g></svg>