<svg xmlns="http://www.w3.org/2000/svg" width="41.279" height="36.041" viewBox="0 0 41.279 36.041"><g transform="translate(-110 -496)"><path d="M159.54,534.578h-5.609a2.786,2.786,0,0,0-2.783,2.783v4.3a2.786,2.786,0,0,0,2.783,2.783h5.609a2.786,2.786,0,0,0,2.784-2.783v-4.3a2.786,2.786,0,0,0-2.784-2.783Zm.759,7.085a.761.761,0,0,1-.759.759h-5.609a.761.761,0,0,1-.759-.759v-4.3a.761.761,0,0,1,.759-.759h5.609a.761.761,0,0,1,.759.759Zm0,0" transform="translate(-20.213 -18.951)" fill="#fff"/><path d="M151.279,507.809a.936.936,0,0,0-.135-.5l-6.14-10.8a1.018,1.018,0,0,0-.877-.514H117.144a1,1,0,0,0-.877.514l-6.132,10.8a1.021,1.021,0,0,0-.135.5,5.921,5.921,0,0,0,3.543,5.415v17.805a1.015,1.015,0,0,0,1.012,1.012h32.161a1.015,1.015,0,0,0,1.012-1.012V513.35a.464.464,0,0,0-.008-.11,5.937,5.937,0,0,0,3.559-5.432Zm-33.544-9.776h25.8l4.8,8.443H112.944Zm21.643,10.459a3.89,3.89,0,0,1-7.658,0Zm-9.809,0a3.9,3.9,0,0,1-7.668,0Zm-17.477,0h7.667a3.9,3.9,0,0,1-7.667,0ZM127,530.017h-5.82V519.094a1.442,1.442,0,0,1,1.442-1.442h2.944a1.442,1.442,0,0,1,1.442,1.442v10.923Zm18.7,0H129.028V519.094a3.472,3.472,0,0,0-3.466-3.467h-2.944a3.472,3.472,0,0,0-3.466,3.467v10.931h-3.585v-16.3c.118.009.236.009.354.009a5.913,5.913,0,0,0,4.909-2.615,5.915,5.915,0,0,0,9.818,0,5.9,5.9,0,0,0,9.8,0,5.912,5.912,0,0,0,4.909,2.615c.118,0,.228-.009.346-.009Zm-.346-18.312a3.888,3.888,0,0,1-3.829-3.205H149.2a3.912,3.912,0,0,1-3.838,3.205Zm0,0" fill="#fff"/></g></svg>