<svg xmlns="http://www.w3.org/2000/svg" width="39.39" height="35" viewBox="0 0 39.39 35"><g transform="translate(-988 -223)"><g transform="translate(988 200.621)"><g transform="translate(0 22.379)"><path d="M11.4,123.474a24.444,24.444,0,0,0,3.178-.2V112.213a24.459,24.459,0,0,0-3.178-.2c-6.3,0-11.4,2.315-11.4,5.172V118.3C0,121.158,5.106,123.474,11.4,123.474Z" transform="translate(-0.001 -103.202)" fill="#fff"/><path d="M11.4,220.526a24.479,24.479,0,0,0,3.178-.2v-3.241a24.455,24.455,0,0,1-3.178.2c-5.5,0-10.085-1.764-11.163-4.112A2.522,2.522,0,0,0,0,214.233v1.122C0,218.211,5.106,220.526,11.4,220.526Z" transform="translate(-0.001 -194.442)" fill="#fff"/><path d="M14.58,276.418v-.252a24.458,24.458,0,0,1-3.178.2c-5.5,0-10.085-1.764-11.163-4.112A2.522,2.522,0,0,0,0,273.317v1.122c0,2.856,5.105,5.172,11.4,5.172a24.219,24.219,0,0,0,3.6-.264,4.08,4.08,0,0,1-.426-1.808Z" transform="translate(0 -247.711)" fill="#fff"/><path d="M179.642,22.379c-6.3,0-11.4,2.315-11.4,5.172v1.122c0,2.856,5.105,5.172,11.4,5.172s11.4-2.315,11.4-5.172V27.551C191.044,24.694,185.939,22.379,179.642,22.379Z" transform="translate(-151.654 -22.379)" fill="#fff"/><path d="M179.642,127.656c-5.5,0-10.085-1.764-11.163-4.112a2.522,2.522,0,0,0-.24,1.059v1.122c0,2.856,5.105,5.172,11.4,5.172s11.4-2.315,11.4-5.172V124.6a2.521,2.521,0,0,0-.24-1.059C189.727,125.892,185.139,127.656,179.642,127.656Z" transform="translate(-151.654 -113.612)" fill="#fff"/><path d="M179.642,186.74c-5.5,0-10.085-1.764-11.163-4.112a2.522,2.522,0,0,0-.24,1.059v1.122c0,2.856,5.105,5.172,11.4,5.172s11.4-2.315,11.4-5.172v-1.122a2.521,2.521,0,0,0-.24-1.059C189.727,184.976,185.139,186.74,179.642,186.74Z" transform="translate(-151.654 -166.895)" fill="#fff"/><path d="M179.642,249.013c-5.5,0-10.085-1.764-11.163-4.112a2.522,2.522,0,0,0-.24,1.059v1.122c0,2.856,5.105,5.172,11.4,5.172s11.4-2.315,11.4-5.172V245.96a2.521,2.521,0,0,0-.24-1.059C189.727,247.249,185.139,249.013,179.642,249.013Z" transform="translate(-151.654 -223.054)" fill="#fff"/><path d="M179.642,308.1c-5.5,0-10.085-1.764-11.163-4.112a2.523,2.523,0,0,0-.24,1.059v1.122c0,2.856,5.105,5.172,11.4,5.172s11.4-2.315,11.4-5.172v-1.122a2.521,2.521,0,0,0-.24-1.059C189.727,306.332,185.139,308.1,179.642,308.1Z" transform="translate(-151.654 -276.336)" fill="#fff"/></g></g></g></svg>