<svg xmlns="http://www.w3.org/2000/svg" width="35.683" height="35.683" viewBox="0 0 35.683 35.683"><path d="M40.056,10.234H35.224V8a1.115,1.115,0,1,0-2.23,0v2.231H26.3V8a1.115,1.115,0,1,0-2.23,0v2.231h-6.69V8a1.115,1.115,0,1,0-2.23,0v2.231H10.32a2.973,2.973,0,0,0-2.974,2.973V39.6a2.973,2.973,0,0,0,2.974,2.974H40.056A2.973,2.973,0,0,0,43.029,39.6V13.207A2.973,2.973,0,0,0,40.056,10.234ZM40.8,39.6a.743.743,0,0,1-.743.743H10.32a.744.744,0,0,1-.744-.743V13.207a.744.744,0,0,1,.744-.743h4.832v2.231a1.115,1.115,0,0,0,2.23,0V12.464h6.69v2.231a1.115,1.115,0,0,0,2.23,0V12.464h6.691v2.231a1.115,1.115,0,0,0,2.23,0V12.464h4.832a.743.743,0,0,1,.743.743Z" transform="translate(-7.346 -6.888)" fill="#fff"/><rect width="4.478" height="3.358" transform="translate(7.801 13.376)" fill="#fff"/><rect width="4.478" height="3.358" transform="translate(7.801 18.948)" fill="#fff"/><rect width="4.478" height="3.358" transform="translate(7.801 24.522)" fill="#fff"/><rect width="4.478" height="3.358" transform="translate(15.602 24.522)" fill="#fff"/><rect width="4.478" height="3.358" transform="translate(15.602 18.948)" fill="#fff"/><rect width="4.478" height="3.358" transform="translate(15.602 13.376)" fill="#fff"/><rect width="4.478" height="3.358" transform="translate(23.404 18.948)" fill="#fff"/><rect width="4.478" height="3.358" transform="translate(23.404 13.376)" fill="#fff"/></svg>