<svg xmlns="http://www.w3.org/2000/svg" width="35.763" height="35.761" viewBox="0 0 35.763 35.761"><path d="M118.811,205.43a1.4,1.4,0,1,1-1.4,1.4,1.4,1.4,0,0,1,1.4-1.4Zm4.889,1.4a1.4,1.4,0,1,0,1.4-1.4,1.4,1.4,0,0,0-1.4,1.4Zm-12.573,0a1.4,1.4,0,1,0,1.4-1.4,1.4,1.4,0,0,0-1.4,1.4Zm24.406,13.1a4.191,4.191,0,0,1-5.926,5.928l-7.669-7.651a1.4,1.4,0,0,1-.35-.583l-1.67-5.5a1.4,1.4,0,0,1,1.71-1.752l5.638,1.562a1.4,1.4,0,0,1,.614.357Zm-11.373-3.454,5.175,5.164,1.976-1.976-5.145-5.135-2.837-.786Zm9.4,5.431-.27-.269-1.976,1.976.269.268a1.4,1.4,0,1,0,1.977-1.974Zm-13.9-1.635c-.258.011-.519.017-.777.017a16.909,16.909,0,0,1-6.428-1.243,1.4,1.4,0,0,0-1.072.006l-6.361,2.685,2.143-5.077a1.4,1.4,0,0,0-.244-1.472,11.843,11.843,0,0,1-3.127-7.95c0-7.235,6.768-13.121,15.087-13.121s15.087,5.886,15.087,13.121a11.5,11.5,0,0,1-1.252,5.119,1.4,1.4,0,1,0,2.5,1.238,14.269,14.269,0,0,0,1.542-6.357c0-8.775-8.022-15.915-17.881-15.915S101,198.459,101,207.235a14.483,14.483,0,0,0,3.257,9.125l-3.148,7.456a1.4,1.4,0,0,0,1.83,1.83l9.006-3.8a19.74,19.74,0,0,0,6.935,1.236c.3,0,.6-.007.9-.02a1.4,1.4,0,0,0-.123-2.791Zm0,0" transform="translate(-101 -191.32)" fill="#fff"/></svg>