<svg xmlns="http://www.w3.org/2000/svg" width="36.34" height="36" viewBox="0 0 36.34 36"><g transform="translate(-598.806 -221.817)"><g transform="translate(598.807 219.901)"><g transform="translate(-0.001 1.916)"><path d="M121.174,21.417c4.6,0,8.331-4.366,8.331-9.751,0-7.468-3.73-9.751-8.331-9.751s-8.331,2.283-8.331,9.751C112.843,17.052,116.573,21.417,121.174,21.417Z" transform="translate(-103.003 -1.916)" fill="#fff"/><path d="M36.162,235.324l-4.111-9.468a2.091,2.091,0,0,0-.929-1.011l-6.38-3.4a.4.4,0,0,0-.438.038,9.89,9.89,0,0,1-12.27,0,.4.4,0,0,0-.438-.038l-6.379,3.4a2.09,2.09,0,0,0-.929,1.011L.177,235.324a2.134,2.134,0,0,0,.155,2,2.037,2.037,0,0,0,1.723.956H34.284a2.037,2.037,0,0,0,1.723-.956A2.135,2.135,0,0,0,36.162,235.324Z" transform="translate(0.001 -202.278)" fill="#fff"/></g></g></g></svg>