<svg xmlns="http://www.w3.org/2000/svg" width="31.833" height="36.181" viewBox="0 0 31.833 36.181"><g transform="translate(-80.938 -141)"><path d="M111,157.96h-2.473V143.474A2.476,2.476,0,0,0,106.057,141H83.411a2.476,2.476,0,0,0-2.473,2.474v24.733a2.476,2.476,0,0,0,2.473,2.473H93.691v.353a1.769,1.769,0,0,0,1.767,1.767h2.473v3.321a1.061,1.061,0,0,0,1.84.717l3.711-4.038H111a1.768,1.768,0,0,0,1.767-1.767V159.727A1.769,1.769,0,0,0,111,157.96Zm-27.593,10.6a.354.354,0,0,1-.353-.353V143.474a.354.354,0,0,1,.353-.354h22.646a.354.354,0,0,1,.353.354V157.96H95.457a1.769,1.769,0,0,0-1.767,1.767v8.833Zm27.239,2.12h-7.633a1.06,1.06,0,0,0-.781.343l-2.186,2.379V171.74a1.06,1.06,0,0,0-1.06-1.06h-3.18v-10.6h14.84Zm0,0" fill="#fff"/><path d="M142.345,207.243h6.36a1.06,1.06,0,0,0,1.06-1.06v-4.24a1.06,1.06,0,0,0-1.06-1.06h-6.36a1.06,1.06,0,0,0-1.06,1.06v4.24a1.06,1.06,0,0,0,1.06,1.06Zm1.06-4.24h4.24v2.12h-4.24Zm0,0" transform="translate(-56.074 -55.643)" fill="#fff"/><path d="M292.052,203h6.36a1.06,1.06,0,0,0,0-2.12h-6.36a1.06,1.06,0,1,0,0,2.12Zm0,0" transform="translate(-195.181 -55.643)" fill="#fff"/><path d="M292.052,262.886h6.36a1.06,1.06,0,0,0,0-2.12h-6.36a1.06,1.06,0,1,0,0,2.12Zm0,0" transform="translate(-195.181 -111.286)" fill="#fff"/><path d="M142.345,322.768H159.3a1.06,1.06,0,0,0,0-2.12h-16.96a1.06,1.06,0,1,0,0,2.12Zm0,0" transform="translate(-56.074 -166.928)" fill="#fff"/><path d="M146.585,380.531h-4.24a1.06,1.06,0,1,0,0,2.12h4.24a1.06,1.06,0,0,0,0-2.12Zm0,0" transform="translate(-56.074 -222.571)" fill="#fff"/><path d="M146.585,440.414h-4.24a1.06,1.06,0,1,0,0,2.12h4.24a1.06,1.06,0,0,0,0-2.12Zm0,0" transform="translate(-56.074 -278.214)" fill="#fff"/><path d="M328.142,500.3h-6.148a1.06,1.06,0,0,0,0,2.12h6.148a1.06,1.06,0,1,0,0-2.12Zm0,0" transform="translate(-223.003 -333.857)" fill="#fff"/><path d="M321.994,440.414a1.06,1.06,0,0,0,0,2.12h8.48a1.06,1.06,0,0,0,0-2.12Zm0,0" transform="translate(-223.003 -278.214)" fill="#fff"/></g></svg>