<svg xmlns="http://www.w3.org/2000/svg" width="19.136" height="16.103" viewBox="0 0 19.136 16.103"><path d="M227.067,469.022a3.478,3.478,0,0,1,1.618,2.584,2.805,2.805,0,1,0-1.618-2.584Zm-1.839,5.746a2.806,2.806,0,1,0-2.807-2.805,2.805,2.805,0,0,0,2.807,2.805Zm1.191.191h-2.381a3.6,3.6,0,0,0-3.593,3.594v2.913l.008.046.2.063a16.37,16.37,0,0,0,4.885.787,10.013,10.013,0,0,0,4.267-.8l.187-.094h.02v-2.913a3.6,3.6,0,0,0-3.593-3.594Zm4.643-2.9H228.7a3.459,3.459,0,0,1-1.068,2.409,4.268,4.268,0,0,1,3.05,4.086v.9a9.674,9.674,0,0,0,3.766-.791l.187-.1h.021v-2.912a3.6,3.6,0,0,0-3.594-3.593Zm-10.758-.191a2.791,2.791,0,0,0,1.493-.434,3.475,3.475,0,0,1,1.306-2.216c0-.052.008-.1.008-.157a2.807,2.807,0,1,0-2.807,2.807Zm2.521,2.6a3.463,3.463,0,0,1-1.067-2.4c-.087-.006-.175-.013-.263-.013h-2.381a3.6,3.6,0,0,0-3.593,3.593v2.912l.007.046.2.063a16.855,16.855,0,0,0,4.048.76v-.879a4.268,4.268,0,0,1,3.05-4.086Zm0,0" transform="translate(-215.52 -466.259)" fill="#1e3064"/></svg>